<svg width="32" height="32" viewBox="0 0 32 32" fill="none" xmlns="http://www.w3.org/2000/svg">
<path d="M4.62395 3.19995H27.392C28.176 3.19995 28.7999 3.82395 28.7999 4.60795V27.392C28.7999 28.16 28.176 28.7999 27.392 28.7999H20.864V18.88H24.1919L24.688 15.024H20.864V12.56C20.864 11.44 21.184 10.672 22.7839 10.672H24.832V7.21595C24.4799 7.16795 23.264 7.07195 21.8559 7.07195C18.896 7.07195 16.88 8.86395 16.88 12.176V15.024H13.536V18.88H16.88V28.7999H4.62395C4.24904 28.8 3.88924 28.6521 3.62265 28.3885C3.35605 28.1249 3.20416 27.7668 3.19995 27.392V4.60795C3.19995 3.82395 3.83995 3.19995 4.62395 3.19995Z" fill="#EFEFEF"/>
</svg>
