<svg width="32" height="32" viewBox="0 0 32 32" fill="none" xmlns="http://www.w3.org/2000/svg">
<path d="M28.7907 9.60409C28.6389 9.04063 28.3421 8.52676 27.9299 8.11365C27.5177 7.70053 27.0045 7.40257 26.4414 7.24942C24.3534 6.67609 16.0001 6.66676 16.0001 6.66676C16.0001 6.66676 7.64807 6.65742 5.55874 7.20542C4.99597 7.36562 4.48384 7.66779 4.07149 8.08294C3.65915 8.49808 3.36045 9.01225 3.20407 9.57609C2.65341 11.6641 2.64807 15.9948 2.64807 15.9948C2.64807 15.9948 2.64274 20.3468 3.18941 22.4134C3.49607 23.5561 4.39607 24.4588 5.54007 24.7668C7.64941 25.3401 15.9801 25.3494 15.9801 25.3494C15.9801 25.3494 24.3334 25.3588 26.4214 24.8121C26.9847 24.6592 27.4984 24.3619 27.9116 23.9497C28.3248 23.5374 28.6233 23.0244 28.7774 22.4614C29.3294 20.3748 29.3334 16.0454 29.3334 16.0454C29.3334 16.0454 29.3601 11.6921 28.7907 9.60409ZM13.3281 20.0068L13.3347 12.0068L20.2774 16.0134L13.3281 20.0068Z" fill="#EFEFEF"/>
</svg>
